<svg width="48" height="48" viewBox="0 0 48 48" fill="none" xmlns="http://www.w3.org/2000/svg">
<path d="M24 34.5C24 34.5 19 26.9316 19 17.5C19 8.06842 24 8.5 24 8.5C24 8.5 29 8.06844 29 17.5C29 26.9316 24 34.5 24 34.5Z" fill="black"/>
<path d="M23 39C23 39.5523 23.4477 40 24 40C24.5523 40 25 39.5523 25 39C25 38.4477 24.5523 38 24 38C23.4477 38 23 38.4477 23 39Z" fill="black"/>
<path d="M24 34.5C24 34.5 19 26.9316 19 17.5C19 8.06842 24 8.5 24 8.5C24 8.5 29 8.06844 29 17.5C29 26.9316 24 34.5 24 34.5Z" stroke="black"/>
<path d="M23 39C23 39.5523 23.4477 40 24 40C24.5523 40 25 39.5523 25 39C25 38.4477 24.5523 38 24 38C23.4477 38 23 38.4477 23 39Z" stroke="black"/>
</svg>
